<svg xmlns="http://www.w3.org/2000/svg" viewBox="0 0 72 72" fill="none" stroke="currentColor" stroke-width="2" stroke-linecap="round" stroke-linejoin="round"><g id="line"><line x1="20.36" x2="20.64" y1="18.34" y2="20.17" /><line x1="15.41" x2="14.06" y1="12.91" y2="6.62" /><line x1="12.51" x2="6.59" y1="18.51" y2="21.03" /><line x1="13.65" x2="9.21" y1="15.52" y2="13.22" /><line x1="54.53" x2="54.27" y1="14.5" y2="8.07" /><line x1="58.74" x2="65.09" y1="19.19" y2="20.16" /><line x1="56.88" x2="60.61" y1="16.59" y2="13.25" /><line x1="29.92" x2="16.84" y1="43.74" y2="30.42" /><line x1="34.07" x2="20.68" y1="38.58" y2="25.19" /><path d="M13.17,44c-2.89-2.89,1.18-6.82,3.42-4.57l9.86,10.04" /><path d="M13.37,36.14c-3.75-3.75,1.52-7.67,4.01-5.18" /><path d="M20.68,25.19c-2.79-2.79-8.3,0.78-3.3,5.77" /><path d="M52.82,38.66c-2.21-2.14-5.67-6.06-10.68-11.07c-3.07,0-3.43,4.57-2.27,7.42l3.46,3.46 L27.03,22.16c-2.59-2.59-7.47,1.9-4.28,5.1" /><line x1="13.37" x2="17.88" y1="36.14" y2="40.74" /><path d="M52.82,38.66c6.23,6.23,6.23,16.32,0,22.55s-16.19,6.26-22.41,0.03" /><line x1="13.17" x2="30.41" y1="44" y2="61.24" /><line x1="33.39" x2="31.35" y1="23.71" y2="9.56" /><line x1="40.08" x2="37.54" y1="24.62" y2="7.62" /><path d="M20.36,18.34c-0.62-4.04,4.98-4.8,5.46-1.66l0.22,1.7" /><path d="M25.17,12.13c-0.81-5.24,5.76-5.29,6.3-1.81" /><path d="M37.54,7.62c-0.6-3.9-7.15-4.28-6.08,2.7" /><path d="M55.33,36.56c-0.51-3.03-0.83-7.31-1.9-14.31c-2.48-1.82-5.46,1.65-6.22,4.64l-2.77-17.96 c-0.56-3.62-7.15-2.88-6.47,1.58" /></g></svg>
